<?xml version="1.0" standalone="no"?>
<!DOCTYPE svg PUBLIC "-//W3C//DTD SVG 20010904//EN"
 "http://www.w3.org/TR/2001/REC-SVG-20010904/DTD/svg10.dtd">
<svg version="1.0" xmlns="http://www.w3.org/2000/svg"
 width="501.000000pt" height="501.000000pt" viewBox="0 0 501.000000 501.000000"
 preserveAspectRatio="xMidYMid meet">
<metadata>
Created by potrace 1.14, written by Peter Selinger 2001-2017
</metadata>
<g transform="translate(0.000000,501.000000) scale(0.100000,-0.100000)"
fill="#000000" stroke="none">
<path d="M2153 5000 c-11 -5 -68 -18 -125 -30 -540 -113 -1023 -388 -1379
-785 -307 -343 -519 -777 -604 -1235 -8 -47 -20 -110 -26 -140 -6 -33 -9 -166
-7 -335 3 -238 7 -296 26 -390 83 -418 233 -765 468 -1080 250 -337 549 -583
929 -766 227 -109 430 -171 740 -224 146 -25 574 -18 725 12 343 68 601 163
857 315 189 113 334 227 499 392 219 220 352 406 485 681 93 190 154 369 206
600 l38 170 0 320 -1 320 -37 165 c-117 508 -330 915 -654 1251 -367 379 -755
598 -1288 725 l-160 38 -335 3 c-186 1 -345 -2 -357 -7z m768 -439 c446 -93
777 -275 1101 -607 144 -147 315 -373 347 -457 10 -27 10 -27 -35 -27 -51 0
-108 -21 -141 -52 -13 -12 -24 -20 -26 -17 -2 2 -12 24 -22 49 -136 318 -523
704 -896 890 -176 89 -314 136 -514 177 -139 28 -560 25 -744 -5 -74 -12 -137
-22 -140 -21 -29 3 304 86 394 98 39 6 174 8 300 6 210 -3 243 -6 376 -34z
m-1084 -77 c-3 -3 -12 -4 -19 -1 -8 3 -5 6 6 6 11 1 17 -2 13 -5z m-447 -82
c0 -13 -31 -38 -77 -61 -87 -44 -346 -269 -443 -386 -62 -75 -110 -152 -110
-178 0 -33 40 1 229 195 199 203 271 264 368 310 35 17 65 34 69 39 3 5 9 9
15 9 23 0 3 -22 -68 -76 -332 -247 -523 -439 -523 -523 0 -17 3 -31 6 -31 4 0
86 80 183 178 178 181 293 278 388 326 61 30 64 31 56 11 -3 -9 -51 -46 -106
-82 -132 -87 -390 -340 -431 -423 -22 -45 -24 -56 -12 -58 25 -5 52 19 139
124 88 106 199 201 342 294 50 33 97 65 106 73 8 7 21 11 27 9 24 -8 11 -32
-23 -46 -125 -53 -353 -263 -505 -466 -51 -69 -100 -129 -109 -135 -9 -5 -42
-9 -74 -10 -50 0 -61 -4 -78 -25 -60 -77 -136 -294 -178 -511 -60 -311 -46
-631 39 -899 43 -135 47 -177 22 -233 -22 -49 -46 -63 -90 -52 -92 22 -125
103 -163 391 -15 122 -7 480 15 599 45 247 103 421 209 630 69 134 77 178 39
218 -34 36 -28 76 21 149 156 232 400 469 613 596 88 52 104 59 104 44z m617
-260 c-37 -38 -35 -76 4 -113 37 -34 50 -36 67 -9 35 56 185 90 402 90 213 0
371 -35 399 -89 15 -28 33 -26 70 5 38 32 42 76 9 112 l-23 25 22 -12 c13 -6
33 -25 45 -42 l22 -30 81 7 c109 9 129 -2 123 -61 -11 -92 -80 -189 -162 -226
-45 -20 -85 -26 -51 -7 68 37 145 147 145 208 l0 30 -73 0 -72 0 -13 -67 c-33
-171 -117 -298 -255 -381 -29 -17 -61 -34 -72 -38 -11 -3 7 10 40 30 78 48
107 77 160 156 56 84 105 215 90 239 -2 5 -52 -6 -109 -25 -133 -43 -264 -58
-436 -51 -151 6 -264 26 -358 64 -35 14 -65 23 -68 21 -9 -10 38 -164 63 -207
58 -99 173 -198 273 -235 41 -16 42 -16 10 -11 -19 3 -67 21 -106 40 -161 79
-284 280 -284 465 0 57 18 96 56 125 30 23 30 18 1 -13z m-82 -416 c33 -14 65
-59 65 -92 0 -29 -61 -8 -103 35 -20 22 -47 43 -60 47 -21 7 -21 7 -2 15 31
12 63 10 100 -5z m-58 -86 c23 -21 53 -42 68 -46 38 -9 12 -24 -43 -24 -37 0
-50 6 -78 34 -72 72 -21 108 53 36z m1153 -115 c-16 -49 -101 -119 -186 -155
-125 -52 -317 -72 -484 -51 -41 5 -7 8 130 13 163 5 195 8 265 31 135 44 244
119 267 185 16 43 23 23 8 -23z m-961 -1 c17 -14 36 -43 43 -65 10 -34 9 -45
-6 -76 -16 -33 -18 -35 -33 -20 -10 9 -20 44 -25 83 -4 37 -12 72 -18 78 -5 5
-10 14 -10 18 0 15 18 8 49 -18z m-189 11 c0 -21 -30 -57 -70 -83 -27 -18 -52
-42 -56 -54 l-8 -23 -6 25 c-16 63 41 140 105 140 19 0 35 -2 35 -5z m130 -79
c1 -22 7 -58 14 -78 16 -43 10 -47 -28 -17 -54 42 -71 113 -39 158 l16 24 19
-23 c11 -13 18 -39 18 -64z m417 58 c-3 -3 -12 -4 -19 -1 -8 3 -5 6 6 6 11 1
17 -2 13 -5z m-517 -65 c0 -33 -6 -47 -34 -75 -41 -41 -96 -49 -96 -13 0 11
12 30 26 42 15 12 43 37 63 54 20 18 37 33 39 33 1 0 2 -18 2 -41z m713 4 c-7
-2 -19 -2 -25 0 -7 3 -2 5 12 5 14 0 19 -2 13 -5z m-80 -10 c-24 -2 -62 -2
-85 0 -24 2 -5 4 42 4 47 0 66 -2 43 -4z m1866 -59 c162 -136 210 -755 99
-1289 -28 -135 -68 -255 -137 -410 -63 -141 -91 -215 -91 -244 0 -10 7 -38 16
-62 27 -72 33 -120 23 -184 -32 -199 -245 -435 -482 -533 -192 -80 -338 -61
-367 49 -45 168 225 632 424 728 25 12 91 30 146 40 108 19 140 35 177 90 52
77 116 284 155 500 19 105 22 163 23 351 0 141 -5 254 -13 303 -15 87 -66 287
-106 417 -47 150 -44 239 6 260 45 17 95 11 127 -16z m-3210 -30 c68 -20 141
-86 171 -156 12 -29 24 -82 27 -124 3 -41 7 -74 9 -74 2 0 19 17 38 38 62 68
102 81 256 81 74 0 150 -2 168 -5 28 -5 32 -10 32 -38 0 -17 -14 -87 -30 -156
-16 -69 -33 -147 -36 -175 -7 -46 -6 -49 9 -36 20 16 28 45 62 211 14 67 30
140 37 161 l11 39 83 0 c79 0 83 -1 103 -28 l20 -28 -35 -169 c-19 -93 -33
-174 -30 -180 7 -19 27 47 56 189 17 78 35 158 40 179 l11 37 80 0 c72 0 82
-2 105 -26 18 -17 24 -32 20 -47 -3 -12 -8 -42 -11 -67 -5 -39 -4 -42 7 -26
48 70 80 104 123 131 48 29 51 30 199 33 l151 3 25 -26 24 -25 -18 -91 c-29
-152 -13 -109 28 73 21 95 43 188 49 207 14 41 33 49 130 50 63 1 68 -1 77
-24 9 -23 -9 -176 -26 -219 -9 -24 7 -19 46 14 43 37 109 60 171 60 65 0 92
-12 146 -65 47 -47 62 -47 63 0 1 43 12 47 116 43 l99 -3 3 -28 c3 -23 -43
-268 -65 -352 -5 -18 -4 -19 12 -4 10 10 28 74 49 178 41 203 47 211 150 210
39 0 80 -4 91 -8 11 -5 30 -2 45 6 43 22 88 16 121 -16 28 -29 29 -32 29 -135
0 -86 -4 -117 -24 -170 -49 -136 -125 -228 -213 -257 -51 -16 -144 -7 -178 18
l-29 20 -44 -23 c-57 -30 -124 -32 -170 -4 -32 20 -71 86 -72 123 0 22 -13 22
-31 0 -23 -28 -111 -63 -158 -63 -70 0 -121 19 -121 45 0 17 -6 22 -22 22 -18
0 -23 -5 -24 -28 -4 -95 -139 -154 -224 -96 l-34 22 -42 -20 c-40 -18 -43 -23
-58 -84 -22 -89 -53 -133 -117 -165 -157 -78 -304 42 -230 186 l18 37 -39 27
c-33 23 -43 26 -56 16 -9 -7 -31 -19 -47 -26 -26 -13 -32 -23 -43 -75 -25
-118 -116 -196 -220 -188 -59 4 -94 25 -130 78 -28 40 -25 87 8 131 26 36 25
39 -15 65 l-35 22 -42 -24 c-58 -34 -132 -34 -180 -1 l-35 23 -39 -23 c-51
-31 -134 -33 -182 -4 -37 23 -69 71 -78 118 -3 17 -9 32 -13 32 -3 0 -19 -20
-34 -45 -33 -51 -73 -87 -130 -117 -32 -16 -51 -19 -91 -14 -28 4 -107 6 -175
6 l-124 0 6 68 c4 37 20 123 37 192 16 69 30 131 30 138 0 7 -13 12 -30 12
-38 0 -84 23 -104 52 -18 25 -22 131 -7 171 27 71 158 165 266 191 80 19 170
19 234 0z m1084 -21 c-7 -2 -19 -2 -25 0 -7 3 -2 5 12 5 14 0 19 -2 13 -5z
m-1171 -1113 c32 -25 43 -60 19 -60 -9 0 -22 9 -29 21 -31 49 -98 0 -109 -79
-11 -79 55 -125 93 -67 14 21 44 35 44 20 0 -19 -29 -59 -51 -71 -40 -20 -67
-17 -94 11 -47 46 -29 177 30 223 34 27 65 28 97 2z m336 3 c2 -8 -5 -13 -17
-13 -16 0 -21 -6 -21 -25 0 -14 5 -25 10 -25 6 0 10 -7 10 -15 0 -8 -6 -15
-14 -15 -18 0 -22 -13 -31 -83 -6 -51 -27 -88 -41 -75 -2 3 1 38 7 78 10 60
10 73 -2 81 -12 8 -12 11 2 22 9 7 20 23 24 37 4 14 12 31 18 38 12 16 49 12
55 -5z m440 -11 c22 -28 14 -71 -19 -104 l-30 -31 20 -46 c11 -25 16 -50 11
-55 -13 -13 -28 1 -41 42 -25 79 -74 99 -84 35 -9 -57 -24 -88 -36 -76 -7 7
-5 43 6 109 23 141 23 142 43 146 36 8 117 -5 130 -20z m1650 16 c19 -19 14
-63 -8 -83 -23 -21 -25 -44 -6 -70 11 -16 17 -17 29 -7 19 16 32 -1 18 -25 -6
-11 -6 -24 0 -35 10 -18 -4 -34 -21 -23 -6 3 -26 1 -45 -6 -67 -25 -119 28
-91 94 7 18 20 38 29 45 11 9 14 23 10 46 -9 54 51 98 85 64z m345 -21 c21
-24 16 -64 -11 -83 -16 -11 -16 -13 1 -31 41 -46 6 -112 -60 -114 -21 0 -53
-1 -70 -2 -18 -1 -33 3 -34 8 -1 6 6 63 16 127 20 129 19 128 95 120 29 -2 52
-12 63 -25z m-1549 -17 c-5 -23 -3 -30 9 -30 10 0 14 -6 11 -15 -4 -8 -12 -15
-19 -15 -8 0 -17 -22 -23 -57 -9 -47 -8 -60 4 -69 32 -25 0 -47 -36 -24 -12 7
-12 19 -3 77 8 42 9 69 3 71 -16 6 -11 32 5 32 8 0 15 5 15 12 0 10 28 48 36
48 2 0 1 -13 -2 -30z m946 -5 c0 -14 5 -25 10 -25 6 0 10 -7 10 -15 0 -8 -6
-15 -14 -15 -20 0 -23 -7 -31 -72 -6 -49 -5 -58 9 -58 10 0 13 -6 10 -15 -8
-21 -41 -19 -53 3 -5 10 -5 39 1 76 8 44 7 60 -2 66 -8 5 -7 11 4 23 9 8 16
19 16 24 0 11 21 33 32 33 4 0 8 -11 8 -25z m-1991 -34 c11 -7 12 -23 7 -73
-7 -57 -13 -98 -15 -106 -1 -1 -10 2 -21 8 -14 8 -25 7 -40 -2 -19 -11 -24
-10 -41 11 -10 13 -19 29 -19 37 0 20 37 54 59 54 32 0 51 11 51 30 0 27 -18
34 -46 19 -28 -15 -42 -6 -24 16 14 16 67 20 89 6z m281 -10 c5 -11 10 -33 10
-50 0 -30 -1 -31 -49 -31 -55 0 -67 -10 -51 -40 12 -23 32 -25 60 -8 29 18 39
-1 11 -23 -67 -55 -134 26 -96 117 19 46 30 54 72 54 22 0 36 -6 43 -19z m480
0 c5 -11 10 -33 10 -50 0 -30 -1 -31 -49 -31 -55 0 -67 -10 -51 -40 12 -23 32
-25 60 -8 29 18 39 -1 11 -23 -28 -23 -49 -24 -78 -4 -63 44 -24 175 52 175
24 0 38 -6 45 -19z m170 4 c19 -22 5 -30 -29 -15 -59 24 -71 -18 -13 -47 29
-14 38 -24 40 -50 6 -56 -62 -83 -109 -43 -20 16 -22 21 -10 29 10 7 18 5 26
-6 14 -18 59 -14 63 7 1 9 -13 23 -35 35 -41 22 -56 63 -32 91 15 19 83 18 99
-1z m279 -7 c4 -12 2 -47 -5 -82 -7 -33 -10 -65 -7 -70 4 -5 -7 -7 -25 -3 -17
4 -34 2 -37 -3 -20 -32 -72 22 -60 60 7 22 28 34 78 44 18 5 27 13 27 27 0 23
-27 36 -43 20 -6 -6 -20 -11 -31 -11 -18 0 -19 1 -1 20 26 29 93 28 104 -2z
m86 -30 c-14 -91 -12 -103 12 -106 27 -4 43 23 58 98 8 40 16 56 29 58 13 3
17 0 13 -10 -3 -8 -11 -49 -17 -91 -12 -74 -23 -90 -46 -67 -8 8 -15 6 -24 -5
-16 -19 -44 -19 -60 0 -18 22 6 175 28 175 12 0 13 -9 7 -52z m195 35 c0 -15
1 -15 18 0 10 10 24 17 30 17 22 0 12 -19 -17 -35 -24 -12 -32 -25 -42 -72 -7
-32 -17 -64 -22 -70 -14 -18 -28 -5 -23 20 3 12 10 52 17 90 7 45 16 67 25 67
8 0 14 -7 14 -17z m199 -5 c4 -13 2 -48 -6 -86 -16 -78 -21 -86 -38 -72 -10 8
-19 8 -34 -2 -32 -20 -56 10 -52 65 1 18 24 31 74 41 18 4 27 13 27 26 0 27
-18 35 -46 19 -28 -15 -42 -6 -24 16 7 9 29 15 52 15 31 0 40 -4 47 -22z m101
13 c0 -5 13 -5 29 2 60 22 73 -9 51 -123 -11 -60 -16 -68 -31 -53 -7 7 -6 31
2 77 13 80 5 99 -34 73 -19 -12 -27 -31 -37 -81 -8 -44 -17 -66 -26 -66 -8 0
-14 8 -14 18 0 18 18 125 26 150 4 14 34 17 34 3z m964 3 c19 -7 21 -51 4
-126 -14 -64 -14 -64 -32 -49 -11 10 -19 9 -35 -1 -17 -11 -23 -10 -37 4 -34
34 -13 98 31 98 36 0 55 10 55 30 0 27 -18 34 -46 19 -28 -15 -42 -6 -24 16
13 15 56 20 84 9z m106 -11 c0 -15 1 -15 18 0 10 10 24 17 30 17 21 0 13 -20
-12 -31 -28 -13 -45 -46 -53 -105 -5 -41 -11 -48 -30 -41 -9 2 -8 5 7 105 8
50 16 72 26 72 8 0 14 -7 14 -17z m-2505 -155 c-9 -42 -23 -68 -36 -68 -6 0
-3 10 5 22 11 16 13 25 5 35 -14 17 -4 43 16 43 13 0 15 -6 10 -32z m-902
-273 c222 -576 738 -1019 1377 -1180 175 -45 305 -57 530 -52 187 4 231 9 400
43 71 14 21 -6 -75 -30 -177 -45 -325 -59 -560 -53 -284 7 -453 38 -705 129
-377 136 -777 457 -1022 819 -64 94 -150 259 -163 312 -7 27 -7 27 44 27 46 0
56 4 94 39 23 22 43 39 43 38 1 -1 18 -43 37 -92z m2394 63 c-3 -7 -5 -2 -5
12 0 14 2 19 5 13 2 -7 2 -19 0 -25z m13 -52 c0 -3 -4 -8 -10 -11 -5 -3 -10
-1 -10 4 0 6 5 11 10 11 6 0 10 -2 10 -4z m60 -50 c0 -4 -9 -1 -19 6 -11 7
-17 16 -15 20 5 8 34 -15 34 -26z m-52 -94 c-16 -14 -27 -30 -24 -37 3 -8 -10
-17 -37 -23 -23 -6 -43 -9 -46 -6 -2 2 1 4 7 4 7 0 12 6 12 14 0 8 4 18 10 21
6 3 7 -1 4 -9 -4 -10 -1 -16 9 -16 9 0 18 9 22 20 3 11 17 28 31 39 16 13 24
30 25 52 l1 34 8 -34 c7 -30 5 -37 -22 -59z m-377 -29 c13 -16 12 -17 -3 -4
-17 13 -22 21 -14 21 2 0 10 -8 17 -17z m11 -43 c4 0 19 -5 33 -10 23 -9 25
-13 15 -25 -10 -13 -8 -15 13 -15 15 0 31 -9 41 -25 9 -14 12 -25 7 -25 -5 0
-13 5 -16 10 -4 6 -25 20 -47 31 -32 16 -51 19 -93 14 -36 -4 -56 -2 -60 6 -5
8 -1 9 16 4 23 -8 23 -7 -4 24 -36 44 -35 61 2 22 28 -30 60 -43 45 -18 -5 8
-2 8 9 -2 23 -19 21 -5 -5 32 l-21 32 29 -27 c17 -16 33 -28 36 -28z m238 40
c0 -5 -8 -10 -17 -10 -15 0 -16 2 -3 10 19 12 20 12 20 0z m137 -12 c-3 -8 -6
-5 -6 6 -1 11 2 17 5 13 3 -3 4 -12 1 -19z m-190 -40 c-18 -11 -24 -10 -30 6
-4 10 -1 13 9 9 8 -3 14 1 14 8 0 11 2 11 10 -1 6 -9 5 -17 -3 -22z m176 -8
c-3 -12 -8 -19 -11 -16 -5 6 5 36 12 36 2 0 2 -9 -1 -20z m-253 -6 c0 -2 -7
-4 -15 -4 -8 0 -15 4 -15 10 0 5 7 7 15 4 8 -4 15 -8 15 -10z m108 -92 c-17
-7 -58 9 -67 26 -9 17 -6 17 33 -2 23 -12 38 -23 34 -24z m-223 -12 c10 -11
16 -20 13 -20 -3 0 -13 9 -23 20 -10 11 -16 20 -13 20 3 0 13 -9 23 -20z m200
-30 c10 -11 16 -20 13 -20 -3 0 -13 9 -23 20 -10 11 -16 20 -13 20 3 0 13 -9
23 -20z m-145 -35 c13 -14 21 -25 18 -25 -2 0 -15 11 -28 25 -13 14 -21 25
-18 25 2 0 15 -11 28 -25z m159 -6 c47 -44 11 -86 -65 -74 -61 9 -75 42 -38
86 18 20 76 13 103 -12z m37 -98 c-9 -16 -17 -49 -18 -71 -1 -22 -5 -36 -8
-29 -4 6 -5 21 -3 33 5 20 5 20 -9 2 -14 -18 -15 -18 -21 -1 -4 9 -13 15 -21
12 -8 -3 -27 11 -46 34 l-31 40 45 -33 c41 -29 48 -30 70 -18 14 7 30 26 37
42 6 16 14 27 16 24 2 -2 -3 -18 -11 -35z m-33 -3 c-2 -5 -17 -8 -33 -8 -16 0
-31 3 -33 8 -3 4 12 7 33 7 21 0 36 -3 33 -7z m1 -124 c9 -24 7 -27 -9 -10
-17 17 -19 26 -6 26 5 0 12 -7 15 -16z m111 -434 c3 -5 -1 -10 -9 -10 -9 0
-16 5 -16 10 0 6 4 10 9 10 6 0 13 -4 16 -10z m-65 -10 c0 -5 -5 -10 -11 -10
-5 0 -7 5 -4 10 3 6 8 10 11 10 2 0 4 -4 4 -10z m150 -5 c-7 -8 -20 -15 -29
-15 -11 1 -8 5 9 15 32 18 35 18 20 0z"/>
<path d="M2233 4076 c-66 -16 -99 -38 -105 -70 -6 -30 12 -35 33 -10 23 28 86
53 161 65 40 6 80 15 88 20 23 13 -117 9 -177 -5z"/>
<path d="M984 3326 c-109 -25 -224 -99 -260 -167 -8 -16 -14 -53 -14 -83 0
-61 24 -96 66 -96 24 0 34 23 34 83 0 85 59 164 147 197 104 39 189 18 227
-55 57 -109 -9 -453 -101 -524 -31 -25 -101 -29 -109 -6 -6 15 2 58 67 341 21
94 39 183 39 199 l0 27 -57 -7 c-93 -11 -95 -15 -127 -166 -15 -74 -40 -188
-56 -254 -33 -134 -50 -232 -42 -240 3 -3 36 -5 74 -5 52 0 70 4 74 15 5 13
11 13 38 -4 53 -33 99 -36 151 -11 124 60 218 259 218 460 -1 104 -15 158 -59
215 -55 73 -189 108 -310 81z"/>
<path d="M3068 3273 c-39 -3 -58 -9 -62 -19 -8 -22 -31 -121 -77 -339 -22
-104 -50 -206 -60 -225 -20 -34 -66 -76 -75 -68 -2 3 16 105 41 228 25 123 45
225 45 227 0 9 -150 2 -155 -7 -4 -7 -11 -7 -18 -2 -23 18 -66 22 -118 11 -43
-9 -63 -21 -104 -63 -58 -58 -88 -123 -105 -233 -13 -84 -33 -124 -71 -147
-25 -14 -29 -15 -29 -2 0 12 69 356 85 424 5 21 3 22 -74 22 -78 0 -79 0 -85
-27 -3 -16 -19 -93 -36 -172 -31 -152 -53 -204 -87 -209 -43 -6 -44 24 -7 202
18 92 34 176 34 187 0 17 -7 19 -74 19 l-73 0 -13 -62 c-26 -132 -59 -274 -69
-300 -12 -33 -52 -61 -75 -52 -25 9 -20 78 18 249 18 83 31 153 29 158 -7 11
-151 8 -155 -4 -2 -6 -14 -5 -33 5 -62 33 -144 8 -207 -62 -45 -50 -60 -78
-87 -166 -34 -110 -24 -195 31 -253 45 -48 137 -42 198 14 l40 35 9 -25 c26
-66 117 -75 198 -18 l44 31 33 -35 c27 -28 41 -35 73 -35 21 0 56 9 76 19 21
11 36 14 34 8 -2 -6 -28 -24 -58 -39 -72 -37 -109 -81 -109 -131 0 -71 84
-120 167 -98 71 19 112 77 143 197 8 33 17 44 42 55 18 7 47 26 64 42 33 28
33 28 44 7 16 -29 69 -60 105 -60 17 0 49 9 73 20 68 31 51 -1 -19 -34 -85
-41 -120 -91 -105 -152 16 -63 87 -95 166 -74 62 17 105 63 125 136 26 94 35
112 60 118 13 3 37 18 54 32 l31 26 34 -36 c26 -29 41 -36 70 -36 43 0 74 14
98 44 28 34 23 63 -11 71 -48 10 -49 -5 29 350 31 140 41 247 25 250 -5 0 -35
-1 -67 -2z m-1394 -303 c-1 -45 -34 -206 -50 -245 -17 -42 -56 -62 -89 -47
-22 10 -25 18 -25 63 0 28 7 76 16 107 33 114 73 166 124 160 22 -3 25 -8 24
-38z m1026 9 c0 -36 -47 -244 -61 -271 -13 -24 -50 -38 -78 -31 -19 5 -21 13
-21 77 0 135 61 256 129 256 28 0 31 -3 31 -31z m-610 -484 c0 -19 -35 -85
-47 -89 -16 -7 -43 10 -43 26 0 15 60 68 76 68 8 0 14 -2 14 -5z m506 -21 c-8
-30 -35 -74 -46 -74 -4 0 -15 9 -25 20 -17 18 -16 20 13 50 39 39 67 41 58 4z"/>
<path d="M1606 2950 c-14 -17 -30 -50 -36 -73 -6 -23 -15 -55 -20 -71 -13 -37
-13 -93 0 -101 16 -10 49 32 55 72 3 21 14 73 24 116 10 43 14 80 10 82 -4 3
-19 -9 -33 -25z"/>
<path d="M2626 2948 c-30 -46 -48 -102 -53 -169 -5 -59 -4 -69 10 -69 24 0 34
26 61 149 19 89 21 111 10 111 -7 0 -20 -10 -28 -22z"/>
<path d="M1116 3218 c-2 -7 -9 -42 -16 -78 -6 -36 -26 -130 -45 -210 -18 -80
-37 -166 -40 -192 -7 -43 -5 -48 12 -48 64 0 131 169 140 355 5 91 3 117 -11
142 -19 37 -35 49 -40 31z"/>
<path d="M850 3112 c-7 -20 -10 -51 -8 -67 4 -30 4 -29 15 10 21 74 23 95 14
95 -6 0 -15 -17 -21 -38z"/>
<path d="M3297 3096 c-108 -39 -180 -148 -179 -273 0 -52 21 -103 42 -103 5 0
21 21 34 48 27 53 61 87 124 126 87 54 152 127 152 171 0 20 -58 45 -102 45
-18 -1 -50 -7 -71 -14z m-56 -105 c-28 -29 -55 -68 -64 -93 -9 -24 -16 -36
-16 -27 -2 32 52 120 87 144 20 14 38 25 40 25 2 0 -19 -22 -47 -49z"/>
<path d="M3876 3077 c-13 -10 -26 -55 -48 -168 -31 -164 -56 -226 -95 -236
-13 -3 -27 -3 -30 1 -12 12 -6 64 22 191 39 181 43 204 37 210 -3 3 -38 5 -78
5 l-72 0 -10 -62 c-6 -35 -14 -86 -17 -115 -3 -28 -14 -77 -25 -109 -11 -31
-20 -82 -20 -112 0 -48 4 -58 34 -88 24 -24 43 -34 65 -34 39 0 98 24 129 52
l22 22 16 -22 c38 -55 118 -66 200 -28 111 52 194 216 194 386 0 95 -14 120
-70 120 -34 0 -41 -4 -46 -24 -10 -41 -1 -60 34 -71 27 -8 32 -13 27 -30 -3
-11 -12 -45 -21 -75 -23 -88 -74 -181 -112 -203 -71 -42 -78 1 -33 200 41 178
41 185 11 194 -42 12 -95 10 -114 -4z"/>
<path d="M3473 2978 c-36 -74 -40 -77 -161 -158 -130 -85 -152 -142 -66 -170
80 -27 183 13 240 93 62 85 78 161 53 238 -22 66 -33 65 -66 -3z"/>
<path d="M4035 2978 c-21 -91 -55 -249 -55 -257 0 -45 73 49 95 121 30 101 29
111 -4 136 l-31 22 -5 -22z"/>
<path d="M2871 2844 c0 -11 3 -14 6 -6 3 7 2 16 -1 19 -3 4 -6 -2 -5 -13z"/>
<path d="M3080 2726 c0 -9 7 -16 16 -16 9 0 14 5 12 12 -6 18 -28 21 -28 4z"/>
<path d="M1756 2178 c-13 -50 -8 -58 33 -58 44 0 64 18 59 52 -2 19 -10 24
-44 26 -36 3 -42 0 -48 -20z"/>
<path d="M3482 2208 c-14 -14 -16 -44 -3 -52 4 -3 17 4 26 15 17 17 17 21 4
34 -12 12 -17 13 -27 3z"/>
<path d="M3443 2088 c-19 -25 -21 -46 -7 -67 16 -23 31 -26 53 -12 13 8 12 15
-4 50 -19 44 -27 49 -42 29z"/>
<path d="M3760 2165 l0 -36 43 3 c39 3 42 5 42 33 0 28 -3 30 -42 33 l-43 3 0
-36z"/>
<path d="M3747 2084 c-4 -4 -7 -23 -7 -41 l0 -34 48 3 c47 3 47 3 47 38 0 34
-1 35 -40 38 -23 2 -44 0 -48 -4z"/>
<path d="M1191 2046 c-15 -18 -3 -46 20 -46 18 0 39 27 39 49 0 16 -46 13 -59
-3z"/>
<path d="M1486 2124 c-29 -28 -20 -44 25 -44 37 0 40 2 33 23 -12 38 -34 46
-58 21z"/>
<path d="M1966 2124 c-28 -28 -20 -44 24 -44 44 0 47 5 24 38 -18 26 -27 27
-48 6z"/>
<path d="M2392 2043 c-13 -24 -4 -43 18 -43 18 0 40 27 40 49 0 18 -49 12 -58
-6z"/>
<path d="M2872 2043 c-13 -24 -4 -43 18 -43 18 0 40 27 40 49 0 18 -49 12 -58
-6z"/>
<path d="M3951 2046 c-14 -16 -4 -46 14 -46 18 0 45 28 45 46 0 18 -44 19 -59
0z"/>
<path d="M2918 1313 c-27 -7 -22 -20 7 -20 15 0 25 5 25 13 0 14 -3 15 -32 7z"/>
</g>
</svg>
